<svg width="155" height="40" viewBox="0 0 155 40" fill="none" xmlns="http://www.w3.org/2000/svg">
<g clip-path="url(#clip0_3201_8)">
<path d="M15 0L20.4545 5.33333L0 25.3333V14.6667L15 0Z" fill="#06D1D4"/>
<path d="M2.90827 28.177L15 40L30 25.3334V14.6667L20.4545 5.33337L0 25.3334L0.0041688 25.3375L20.4545 5.33337V20.6667L11.25 29.6667V20.1324L2.90827 28.177Z" fill="#3628A0"/>
</g>
<path d="M35.5 24.5V23H34V21.5H37V23H41.5V20H35.5V18.5H34V15.5H35.5V14H43V15.5H44.5V17H41.5V15.5H37V18.5H43V20H44.5V23H43V24.5H35.5ZM47.5 24.5V23H46V18.5H47.5V17H56.5V18.5H49V23H56.5V24.5H47.5ZM62.5 18.5H64V20H62.5V24.5H59.5V17H62.5V18.5ZM68.5 17V18.5H64V17H68.5ZM71.5 24.5V23H70V17H73V23H77.5V17H80.5V24.5H71.5ZM82 24.5V17H91V18.5H92.5V24.5H89.5V18.5H88V24.5H85V18.5H83.5V24.5H82ZM95.5 20V18.5H104.5V20H95.5ZM106 24.5V14H113.5V15.5H115V17H116.5V21.5H115V23H113.5V24.5H106ZM109 23H112V21.5H113.5V17H112V15.5H109V23ZM119.5 24.5V23H118V18.5H119.5V17H127V18.5H128.5V21.5H121V23H127V24.5H119.5ZM121 20H125.5V18.5H121V20ZM130 24.5V23H137.5V21.5H131.5V20H130V18.5H131.5V17H139V18.5H133V20H139V21.5H140.5V23H139V24.5H130ZM142 24.5V14H145V20H148V18.5H149.5V17H152.5V18.5H151V20H149.5V21.5H151V23H152.5V24.5H149.5V23H148V21.5H145V24.5H142Z" fill="black"/>
<defs>
<clipPath id="clip0_3201_8">
<rect width="30" height="40" fill="white"/>
</clipPath>
</defs>
</svg>
